<svg width="106" height="106" viewBox="0 0 106 106" fill="none" xmlns="http://www.w3.org/2000/svg">
<circle cx="53" cy="53" r="52.5" stroke="#727272"/>
<path d="M61.0355 50.0222C60.9955 49.1146 60.8487 48.4906 60.6385 47.9499C60.4216 47.3759 60.0879 46.8621 59.6507 46.4349C59.2235 46.0011 58.7063 45.664 58.139 45.4505C57.5951 45.2402 56.9744 45.0935 56.0668 45.0534C55.1523 45.01 54.862 45 52.5428 45C50.2236 45 49.9333 45.01 49.0222 45.0501C48.1146 45.0901 47.4906 45.237 46.95 45.4471C46.3759 45.664 45.8621 45.9977 45.4349 46.4349C45.0011 46.8621 44.6641 47.3793 44.4505 47.9466C44.2402 48.4906 44.0935 49.1112 44.0534 50.0188C44.01 50.9333 44 51.2236 44 53.5428C44 55.862 44.01 56.1523 44.0501 57.0634C44.0901 57.971 44.237 58.595 44.4472 59.1357C44.6641 59.7097 45.0011 60.2235 45.4349 60.6507C45.8621 61.0845 46.3793 61.4216 46.9466 61.6351C47.4906 61.8454 48.1112 61.9921 49.019 62.0322C49.9299 62.0723 50.2203 62.0822 52.5395 62.0822C54.8588 62.0822 55.1491 62.0723 56.0601 62.0322C56.9678 61.9921 57.5918 61.8454 58.1323 61.6351C59.2803 61.1912 60.188 60.2836 60.6318 59.1357C60.842 58.5918 60.9889 57.971 61.0289 57.0634C61.0689 56.1523 61.0789 55.862 61.0789 53.5428C61.0789 51.2236 61.0756 50.9333 61.0355 50.0222ZM59.4972 56.9966C59.4605 57.8309 59.3204 58.2814 59.2036 58.5817C58.9165 59.3259 58.3259 59.9165 57.5817 60.2036C57.2814 60.3204 56.8276 60.4605 55.9966 60.4971C55.0956 60.5373 54.8254 60.5472 52.5462 60.5472C50.267 60.5472 49.9934 60.5373 49.0956 60.4971C48.2614 60.4605 47.8109 60.3204 47.5105 60.2036C47.1402 60.0667 46.8031 59.8498 46.5295 59.5661C46.2458 59.2891 46.0289 58.9554 45.8921 58.5851C45.7753 58.2848 45.6351 57.8309 45.5985 57C45.5584 56.099 45.5485 55.8287 45.5485 53.5494C45.5485 51.2702 45.5584 50.9966 45.5985 50.099C45.6351 49.2648 45.7753 48.8143 45.8921 48.5139C46.0289 48.1435 46.2458 47.8065 46.5329 47.5328C46.8098 47.2491 47.1435 47.0322 47.5139 46.8955C47.8143 46.7787 48.2681 46.6385 49.099 46.6018C50 46.5618 50.2704 46.5517 52.5494 46.5517C54.8321 46.5517 55.1023 46.5618 56 46.6018C56.8343 46.6385 57.2848 46.7787 57.5851 46.8955C57.9554 47.0322 58.2925 47.2491 58.5661 47.5328C58.8498 47.8098 59.0667 48.1435 59.2036 48.5139C59.3204 48.8143 59.4605 49.268 59.4972 50.099C59.5373 51 59.5473 51.2702 59.5473 53.5494C59.5473 55.8287 59.5373 56.0956 59.4972 56.9966Z" fill="#001689"/>
<path d="M52.5425 49.1545C50.1199 49.1545 48.1543 51.12 48.1543 53.5427C48.1543 55.9655 50.1199 57.9309 52.5425 57.9309C54.9652 57.9309 56.9307 55.9655 56.9307 53.5427C56.9307 51.12 54.9652 49.1545 52.5425 49.1545ZM52.5425 56.3892C50.9708 56.3892 49.696 55.1145 49.696 53.5427C49.696 51.9709 50.9708 50.6962 52.5425 50.6962C54.1143 50.6962 55.389 51.9709 55.389 53.5427C55.389 55.1145 54.1143 56.3892 52.5425 56.3892Z" fill="#001689"/>
<path d="M58.1291 48.9812C58.1291 49.547 57.6704 50.0057 57.1045 50.0057C56.5388 50.0057 56.0801 49.547 56.0801 48.9812C56.0801 48.4154 56.5388 47.9568 57.1045 47.9568C57.6704 47.9568 58.1291 48.4154 58.1291 48.9812Z" fill="#001689"/>
</svg>
