<svg width="122" height="94" viewBox="0 0 122 94" fill="none" xmlns="http://www.w3.org/2000/svg">
<g clip-path="url(#clip0)">
<path d="M32.4382 29.848V30.7808H22.7476V29.848H25.5018V17.826C25.5018 15.6496 25.5018 13.5768 22.8496 13.5768C21.3195 13.5768 20.2994 14.4059 19.6874 15.235C18.6673 16.6859 18.6673 18.2405 18.5653 20.8315V29.848H21.2175V30.7808H11.6289V29.848H14.281V18.1369C14.281 16.8932 14.281 15.6496 13.873 14.9241C13.771 14.6132 13.159 13.5768 11.7309 13.5768C10.4048 13.5768 9.18069 14.3023 8.46664 15.3386C7.54858 16.5823 7.44658 18.2405 7.34457 20.8315V29.848H9.99675V30.7808H0.204102V29.848H3.1623V13.6804H0.204102V12.7477H7.14056V14.6132C7.7526 14.1986 8.87467 13.3695 8.97668 13.2659C10.2008 12.5404 11.7309 12.2295 13.159 12.2295C15.3011 12.2295 17.1372 12.955 18.1573 14.9241C18.9733 14.095 20.8095 12.2295 24.3797 12.2295C26.4198 12.2295 27.7459 12.955 28.46 13.7841C29.48 14.8205 29.48 16.2714 29.48 17.4114V29.7444H32.4382V29.848Z" fill="#001689"/>
<path d="M48.8612 14.4059C48.2492 13.7841 47.2291 13.2659 45.903 13.2659C44.6789 13.2659 43.6589 13.6804 42.9448 14.3023C41.4147 15.6496 41.4147 17.1005 41.4147 22.697C41.4147 26.0134 41.4147 27.8789 42.9448 29.2262C43.6589 29.848 44.6789 30.2626 45.903 30.2626C47.7391 30.2626 48.6572 29.3298 48.8612 29.1225C49.9833 27.9825 50.0853 26.6352 50.0853 21.7642C50.0853 20.6242 50.0853 19.3805 50.0853 18.2405C49.9833 17.1005 49.8813 15.5459 48.8612 14.4059ZM45.903 31.1953C41.0067 31.1953 36.7224 27.1534 36.7224 21.7642C36.7224 16.375 41.0067 12.2295 45.903 12.2295C50.6973 12.2295 54.9816 16.1677 54.9816 21.7642C54.8796 27.3607 50.4933 31.1953 45.903 31.1953Z" fill="#001689"/>
<path d="M58.7557 0H66.2022V29.8479H69.4664V30.677H58.8577V29.8479H62.02V0.932745H58.7557V0Z" fill="#001689"/>
<path d="M73.9548 0H81.2993V29.8479H84.5635V30.677H74.0568V29.8479H77.219V0.932745H73.9548V0Z" fill="#001689"/>
<path d="M100.069 21.5566C96.7023 21.5566 93.4381 22.593 93.4381 26.2203C93.4381 28.3967 94.7642 29.2258 96.0903 29.2258C97.3144 29.2258 98.1304 28.604 98.5385 28.1894C99.8646 26.8421 99.9666 25.2876 100.069 23.1112V21.5566ZM104.047 27.464C104.047 28.9149 104.047 29.9513 105.067 29.9513C105.577 29.9513 106.087 29.4331 106.393 29.1222L106.903 29.744C106.495 30.1586 105.475 31.1949 103.741 31.1949C102.823 31.1949 101.905 30.884 101.293 30.3658C100.273 29.5367 100.171 28.5004 100.069 27.5676C99.1505 29.4331 97.2124 31.1949 94.3562 31.1949C91.704 31.1949 89.5619 29.6404 89.5619 26.9458C89.5619 24.2512 91.5 22.3857 94.3562 21.5566C96.1923 21.0384 98.6405 20.8311 100.171 20.8311V16.4783C100.069 15.2346 99.9666 13.1619 97.2124 13.1619C95.2743 13.1619 93.7442 14.3019 93.7442 15.0274C93.7442 15.5456 94.6622 16.0637 94.6622 17.1001C94.6622 18.0329 93.8462 18.9656 92.7241 18.9656C91.602 18.9656 90.888 18.0329 90.888 16.8929C90.888 14.7164 93.6421 12.3328 98.0284 12.3328C100.069 12.3328 102.109 13.0582 103.129 14.0946C104.353 15.3383 104.353 16.7892 104.353 18.4474V27.464H104.047Z" fill="#001689"/>
<path d="M120.98 13.6797H116.39V26.6345C116.39 27.9818 116.39 29.8473 118.532 29.8473C120.674 29.8473 120.98 28.0855 121.082 27.36H122C121.796 28.3964 121.184 31.1946 117.206 31.1946C115.064 31.1946 113.431 30.3655 112.717 28.6037C112.411 27.7746 112.411 26.8418 112.411 24.5618V13.6797H109.657V13.0579C111.289 12.3324 112.513 11.1924 113.635 9.84512C115.268 7.77235 115.574 6.52869 115.778 5.59595H116.39V12.8506H120.98V13.6797Z" fill="#001689"/>
<path d="M115.88 84.4653C115.88 82.9108 117.206 82.1853 118.838 82.1853C120.47 82.1853 121.898 83.118 121.898 84.9835H120.164C120.164 83.9472 119.552 83.6362 118.736 83.6362C118.022 83.6362 117.512 83.8435 117.512 84.4653C117.512 85.1908 118.226 85.1908 119.858 85.8127C120.878 86.2272 121.592 86.6418 121.592 87.8854C121.592 89.3364 120.266 90.0618 118.838 90.0618C117.206 90.0618 115.982 88.9218 115.982 87.4709H117.716C117.716 88.1963 118.022 88.6109 118.94 88.6109C119.552 88.6109 120.062 88.3 120.062 87.7818C120.062 87.1599 119.348 87.0563 118.022 86.5381C116.798 86.2272 115.88 85.8126 115.88 84.4653Z" fill="#001689"/>
<path d="M97.7224 82.2889C98.0284 82.2889 98.5384 82.1853 99.0485 82.1853C99.8645 82.1853 101.497 82.2889 101.497 84.8799V88.4036H102.721V89.8545H101.497V92.2382H99.7625V89.9582H97.9264V88.5072H99.6605V85.3981C99.6605 84.0508 99.2525 83.9472 98.5384 83.9472C98.2324 83.9472 97.8244 83.9472 97.6204 84.0508V82.2889H97.7224Z" fill="#001689"/>
<path d="M78.5452 86.1236C78.5452 87.4709 79.3613 88.5072 80.7894 88.5072C82.1155 88.5072 82.9315 87.3672 82.9315 86.1236C82.9315 84.7763 82.1155 83.7399 80.7894 83.7399C79.3613 83.7399 78.5452 84.8799 78.5452 86.1236ZM76.7091 89.9582V82.3926H78.5452V83.429C79.0553 82.7035 79.9733 82.1853 80.8914 82.1853C83.1355 82.1853 84.7676 84.0508 84.7676 86.1236C84.7676 88.1963 83.0335 90.1655 80.7894 90.1655C79.9733 90.1655 78.9533 89.7509 78.4432 88.9218V89.9582H76.7091Z" fill="#001689"/>
<path d="M58.1438 82.2889C58.4498 82.2889 58.9599 82.1853 59.4699 82.1853C60.2859 82.1853 61.9181 82.2889 61.9181 84.8799V88.4036H63.1421V89.8545H61.9181V92.2382H60.1839V89.9582H58.4498V88.5072H60.1839V85.3981C60.1839 84.0508 59.7759 83.9472 59.0619 83.9472C58.7558 83.9472 58.3478 83.9472 58.1438 84.0508V82.2889Z" fill="#001689"/>
<path d="M44.4749 89.9584H42.7408V82.3928H44.4749V89.9584ZM43.6589 94.0003C42.9448 94.0003 42.3328 93.3785 42.3328 92.653C42.3328 91.9276 42.9448 91.3057 43.6589 91.3057C44.3729 91.3057 44.9849 91.9276 44.9849 92.653C44.8829 93.3785 44.3729 94.0003 43.6589 94.0003Z" fill="#001689"/>
<path d="M22.6454 86.1236C22.6454 87.4709 23.4615 88.5073 24.8896 88.5073C26.2156 88.5073 27.0317 87.3672 27.0317 86.1236C27.0317 84.7763 26.2156 83.7399 24.8896 83.7399C23.5635 83.7399 22.6454 84.8799 22.6454 86.1236ZM28.8678 86.1236C28.8678 88.3 27.3377 90.0618 24.9916 90.0618C22.5434 90.0618 21.0133 88.1963 21.0133 86.1236C21.0133 83.9472 22.5434 82.1853 24.9916 82.1853C27.2357 82.1853 28.8678 83.9472 28.8678 86.1236Z" fill="#001689"/>
<path d="M7.03851 89.9581H5.30439V88.9217C4.79436 89.6472 3.97831 90.1654 2.85623 90.1654C1.73416 90.1654 1.02011 89.7508 0.612084 89.129C0.204057 88.6108 0.102051 87.8853 0.102051 86.8489V82.2888H1.83616V86.2271C1.83616 87.5744 2.24419 88.5071 3.46827 88.5071C4.69235 88.5071 5.30439 87.4707 5.30439 86.2271V82.2888H7.03851V89.9581Z" fill="#001689"/>
<path d="M115.472 65.2921C115.472 66.6394 116.288 67.6758 117.716 67.6758C119.042 67.6758 119.858 66.5358 119.858 65.2921C119.858 63.9448 119.042 62.9085 117.716 62.9085C116.39 62.8048 115.472 63.9448 115.472 65.2921ZM113.737 69.0231V61.4575H115.472V62.4939C115.982 61.7684 116.9 61.2502 117.818 61.2502C120.062 61.2502 121.694 63.1157 121.694 65.1885C121.694 67.2613 120.164 69.1268 117.818 69.1268C117.002 69.1268 115.982 68.7122 115.472 67.8831V68.9195H113.737V69.0231Z" fill="#001689"/>
<path d="M90.5819 69.0231V61.4575H92.316V62.4939C92.8261 61.6648 93.6421 61.2502 94.7642 61.2502C95.8863 61.2502 96.6003 61.6648 97.0083 62.2866C97.4163 62.8048 97.5184 63.5303 97.5184 64.5667V69.0231H95.7842V65.0849C95.7842 63.7376 95.3762 62.8048 94.1521 62.8048C92.9281 62.8048 92.316 63.8412 92.316 65.0849V69.0231H90.5819Z" fill="#001689"/>
<path d="M68.7526 63.6338C68.7526 62.0792 70.0787 61.3538 71.7108 61.3538C73.3429 61.3538 74.771 62.2865 74.771 64.152H73.0368C73.0368 63.1156 72.4248 62.8047 71.6087 62.8047C70.8947 62.8047 70.3847 63.012 70.3847 63.6338C70.3847 64.3593 71.0987 64.3593 72.7308 64.9811C73.7509 65.3956 74.4649 65.8102 74.4649 67.0539C74.4649 68.5048 73.1389 69.2303 71.7108 69.2303C70.0787 69.2303 68.8546 68.0902 68.8546 66.6393H70.5887C70.5887 67.3648 70.8947 67.7793 71.8128 67.7793C72.4248 67.7793 72.9348 67.4684 72.9348 66.9502C72.9348 66.3284 72.2208 66.2248 70.8947 65.7066C69.7726 65.3956 68.7526 64.9811 68.7526 63.6338Z" fill="#001689"/>
<path d="M47.3312 65.2922C47.3312 66.6395 48.1472 67.6759 49.5753 67.6759C50.9014 67.6759 51.7174 66.5359 51.7174 65.2922C51.7174 63.9449 50.9014 62.9086 49.5753 62.9086C48.1472 62.9086 47.3312 63.9449 47.3312 65.2922ZM53.4516 65.2922C53.4516 67.4686 51.9215 69.2305 49.5753 69.2305C47.1271 69.2305 45.597 67.365 45.597 65.2922C45.597 63.1158 47.1271 61.354 49.5753 61.354C51.9215 61.2503 53.4516 63.1158 53.4516 65.2922Z" fill="#001689"/>
<path d="M29.7861 69.023H28.0519V67.9866C27.5419 68.8157 26.7259 69.2303 25.6038 69.2303C24.4817 69.2303 23.7677 68.8157 23.3596 68.1939C22.9516 67.6757 22.8496 66.9502 22.8496 65.9138V61.3538H24.5837V65.292C24.5837 66.6393 24.9918 67.572 26.2158 67.572C27.4399 67.572 28.0519 66.5357 28.0519 65.292V61.3538H29.7861V69.023Z" fill="#001689"/>
<path d="M5.40635 66.017H1.73411C1.73411 67.157 2.44816 67.8824 3.57023 67.8824C4.5903 67.8824 5.40635 67.2606 5.40635 66.017ZM5.40635 64.7733C5.30435 63.6333 4.89632 62.8042 3.36622 62.8042C2.34615 62.8042 1.93813 63.2187 1.73411 63.8405H0.102007C0.30602 62.4932 1.5301 61.3532 3.46823 61.3532C5.91639 61.2496 7.14047 63.0114 7.14047 65.2915C7.14047 67.5715 5.81438 69.2298 3.46823 69.2298C1.5301 69.2298 0 67.7788 0 65.8097C0 65.4988 0 65.1878 0.102007 64.6697H5.40635V64.7733Z" fill="#001689"/>
<path d="M61.408 46.4301L63.7541 46.1192L61.408 45.7046L62.326 44.5646L61.1019 45.4973L60.7959 43.01L60.3879 45.4973L59.2658 44.5646L60.0819 45.7046L57.7357 46.1192L60.0819 46.4301L59.2658 47.6737L60.3879 46.741L60.7959 49.2283L61.1019 46.741L62.326 47.6737L61.408 46.4301Z" fill="#001689"/>
</g>
<defs>
<clipPath id="clip0">
<rect width="122" height="94" fill="white"/>
</clipPath>
</defs>
</svg>
