<svg width="106" height="106" viewBox="0 0 106 106" fill="none" xmlns="http://www.w3.org/2000/svg">
<circle cx="53" cy="53" r="52.5" stroke="#727272"/>
<path d="M62.4079 49.8668C61.6862 50.1834 60.9171 50.3932 60.1153 50.4951C60.9402 50.0027 61.5697 49.2288 61.8657 48.296C61.0966 48.7545 60.2476 49.0784 59.3427 49.2591C58.6124 48.4816 57.5717 48 56.4363 48C54.2335 48 52.4601 49.788 52.4601 51.9798C52.4601 52.2952 52.4868 52.5985 52.5523 52.8872C49.2445 52.7258 46.3175 51.1404 44.3513 48.7254C44.008 49.321 43.8066 50.0027 43.8066 50.7365C43.8066 52.1145 44.5162 53.336 45.574 54.0431C44.9347 54.031 44.3076 53.8454 43.7763 53.5531C43.7763 53.5652 43.7763 53.581 43.7763 53.5968C43.7763 55.5303 45.1555 57.1363 46.9641 57.5062C46.6402 57.5948 46.2872 57.6372 45.9209 57.6372C45.6662 57.6372 45.409 57.6227 45.1676 57.5693C45.6831 59.145 47.146 60.3034 48.8854 60.341C47.5317 61.3999 45.8129 62.038 43.9522 62.038C43.6259 62.038 43.313 62.0234 43 61.9834C44.7625 63.12 46.8513 63.7689 49.1038 63.7689C56.4254 63.7689 60.4283 57.7039 60.4283 52.4468C60.4283 52.2709 60.4222 52.1011 60.4137 51.9325C61.2034 51.3721 61.8669 50.6722 62.4079 49.8668Z" fill="#001689"/>
</svg>
